<?xml version="1.0" standalone="no"?>
<!DOCTYPE svg PUBLIC "-//W3C//DTD SVG 20010904//EN"
 "http://www.w3.org/TR/2001/REC-SVG-20010904/DTD/svg10.dtd">
<svg version="1.0" xmlns="http://www.w3.org/2000/svg"
 width="225.000000pt" height="225.000000pt" viewBox="0 0 225.000000 225.000000"
 preserveAspectRatio="xMidYMid meet">
<metadata>
Created by potrace 1.11, written by Peter Selinger 2001-2013
</metadata>
<g transform="translate(0.000000,225.000000) scale(0.100000,-0.100000)"
fill="#000000" stroke="none">
<path d="M969 2149 c-162 -18 -346 -94 -479 -198 -68 -53 -142 -122 -173 -161
-15 -19 -33 -42 -40 -50 -68 -83 -111 -168 -159 -315 -37 -112 -40 -130 -45
-268 -11 -277 51 -478 214 -695 80 -107 279 -266 376 -302 18 -6 46 -18 62
-26 187 -88 545 -97 740 -18 277 113 444 258 582 504 79 140 130 378 118 550
-6 95 -39 257 -56 274 -5 6 -9 17 -9 25 0 9 -12 41 -27 71 -14 30 -27 58 -27
62 -1 4 -24 43 -53 85 -150 224 -362 374 -628 444 -87 23 -276 32 -396 18z
m390 -78 c95 -24 222 -81 308 -138 123 -81 266 -241 331 -370 167 -329 138
-731 -74 -1030 -88 -125 -263 -268 -400 -329 -151 -67 -270 -88 -453 -81 -145
5 -250 29 -370 83 -156 71 -332 227 -425 378 -161 258 -194 575 -91 866 117
326 409 572 755 635 106 20 311 13 419 -14z"/>
<path d="M940 1996 c-354 -75 -629 -345 -706 -693 -23 -100 -23 -290 0 -391
67 -303 307 -567 601 -661 540 -173 1097 176 1176 738 44 316 -95 652 -350
840 -80 60 -229 132 -321 156 -88 23 -313 29 -400 11z m490 -333 l308 -168
-315 -3 c-173 -1 -454 -1 -624 0 l-310 3 308 167 c169 92 312 168 317 168 4 0
147 -75 316 -167z m270 -233 c0 -19 -7 -20 -212 -22 -117 -1 -377 -2 -578 -2
l-365 0 -3 22 -3 22 580 0 c574 0 581 0 581 -20z m-959 -65 c34 -8 38 -20 9
-28 -19 -5 -20 -14 -20 -256 0 -244 1 -251 20 -251 11 0 20 -6 20 -14 0 -11
-18 -15 -74 -18 -41 -2 -81 -2 -90 0 -23 5 -20 29 4 35 20 5 21 12 20 252 l-1
246 -27 10 c-18 7 -22 13 -14 18 17 10 116 14 153 6z m258 -1 c36 -8 41 -21 9
-26 l-23 -3 -3 -252 c-2 -245 -2 -253 17 -253 21 0 36 -15 23 -24 -4 -2 -46
-6 -92 -7 -59 -1 -85 2 -88 10 -2 7 5 15 17 18 21 5 21 10 21 255 0 241 -1
250 -20 255 -11 3 -20 12 -20 19 0 10 16 14 64 14 35 0 78 -3 95 -6z m389 -11
c2 -7 -1 -14 -7 -14 -6 -1 -17 -2 -23 -3 -10 -1 -13 -60 -15 -253 l-1 -251 24
-6 c54 -14 20 -26 -71 -26 -62 0 -95 4 -95 11 0 6 9 13 20 16 19 5 20 14 20
255 0 241 -1 250 -20 255 -20 5 -25 15 -15 25 3 3 44 4 92 4 59 -1 88 -5 91
-13z m249 0 c3 -8 -4 -13 -16 -13 -21 0 -21 -3 -21 -254 0 -245 1 -254 20
-259 22 -6 28 -27 8 -27 -27 -1 -144 -2 -161 -1 -21 1 -17 26 4 26 12 0 14 43
17 258 2 252 2 257 -18 257 -11 0 -20 6 -20 13 0 19 181 18 187 0z m61 -620
l3 -23 -580 0 c-557 0 -581 1 -581 18 0 10 3 22 7 25 4 4 263 6 577 5 l571 -3
3 -22z m62 -89 l0 -24 -600 -2 c-330 -1 -619 -2 -642 -3 -39 0 -43 2 -43 25
l0 25 630 5 c347 3 636 3 643 1 6 -2 12 -14 12 -27z"/>
<path d="M875 1672 c-126 -70 -239 -133 -250 -139 -16 -10 89 -12 489 -13 295
0 506 4 500 9 -10 10 -499 271 -505 270 -2 0 -107 -57 -234 -127z m288 10 c41
-36 9 -112 -48 -112 -58 0 -94 59 -62 101 31 40 72 44 110 11z m-148 -104 c7
-17 -2 -18 -101 -18 -122 1 -122 -4 6 66 l75 41 6 -36 c3 -20 9 -44 14 -53z
m311 41 c52 -28 94 -53 94 -55 0 -2 -48 -4 -106 -4 l-106 0 8 28 c4 15 8 39 7
55 0 15 2 27 4 27 2 0 47 -23 99 -51z"/>
</g>
</svg>
